<svg width="21" height="18" viewBox="0 0 21 18" fill="none" xmlns="http://www.w3.org/2000/svg">
<path d="M10.0384 2.84615C10.0384 2.84615 17.8007 2.8463 18.9003 2.8463C20 2.8463 20 2.8463 20 4.07707C20 5.30784 19.561 12.6924 16.6848 12.6923C16.6848 12.6923 7.82291 12.6922 6.71516 12.6923C5.60742 12.6925 5.60742 1.00015 3.39194 1L1.17645 1M8.37368 17C8.67945 17 8.92732 16.7245 8.92732 16.3846C8.92732 16.0447 8.67945 15.7692 8.37368 15.7692C8.06792 15.7692 7.82005 16.0447 7.82005 16.3846C7.82005 16.7245 8.06792 17 8.37368 17ZM16.1245 17C16.4303 17 16.6782 16.7245 16.6782 16.3846C16.6782 16.0447 16.4303 15.7692 16.1245 15.7692C15.8188 15.7692 15.5709 16.0447 15.5709 16.3846C15.5709 16.7245 15.8188 17 16.1245 17Z" stroke="#C1C8C0" stroke-width="1.5" stroke-linecap="round"/>
</svg>
