<svg width="23" height="20" viewBox="0 0 23 20" fill="none" xmlns="http://www.w3.org/2000/svg">
<path d="M2.17647 11.8141H4.17647C5.17597 11.8141 5.17597 11.8141 5.17647 12.8406V17.9734C5.17647 19 5.17647 19 4.17647 19H2.17647C1.1765 19 1.17597 19 1.17647 17.9734C1.17647 17.9734 1.17675 14.8938 1.17647 12.7298C1.17578 7.33633 2.3938 1.02961 11.1762 1.0001C19.9964 0.970469 21.176 7.41824 21.176 12.8406C21.176 14.8938 21.176 17.9734 21.176 17.9734C21.176 19 21.176 19 20.176 19H18.176C17.176 19 17.1755 19 17.176 17.9734V12.8406C17.1755 11.8141 17.176 11.8141 18.176 11.8141H20.176" stroke="white" stroke-width="2" stroke-linecap="round"/>
</svg>
