<svg width="21" height="20" viewBox="0 0 21 20" fill="none" xmlns="http://www.w3.org/2000/svg">
<g clip-path="url(#clip0_165_644)">
<path d="M20.1158 5.87708C20.0672 4.81262 19.8981 4.08569 19.6509 3.44971C19.3999 2.78244 19.0062 2.17804 18.4975 1.67847C17.9981 1.16974 17.3935 0.77591 16.7263 0.52475C16.0901 0.27771 15.3633 0.108795 14.2989 0.0604248C13.2325 0.0115967 12.8917 0 10.176 0C7.46021 0 7.11948 0.0115967 6.05304 0.0601196C4.98859 0.108795 4.26181 0.277863 3.62567 0.525055C2.9584 0.776062 2.354 1.16974 1.85443 1.67847C1.3457 2.17789 0.951874 2.78229 0.700714 3.44956C0.453674 4.08569 0.28476 4.81262 0.236389 5.87692C0.187561 6.94351 0.175964 7.28409 0.175964 9.99985C0.175964 12.7158 0.187561 13.0565 0.236389 14.1229C0.284912 15.1872 0.453979 15.9142 0.701172 16.5503C0.952179 17.2174 1.34586 17.822 1.85458 18.3214C2.354 18.8301 2.95856 19.2238 3.62582 19.4748C4.26181 19.7221 4.98874 19.8911 6.05319 19.9397C7.11978 19.9884 7.46036 19.9999 10.1761 19.9999C12.8919 19.9999 13.2326 19.9884 14.299 19.9397C15.3635 19.8911 16.0903 19.7221 16.7264 19.4748C18.0696 18.9554 19.1315 17.8935 19.6509 16.5503C19.8983 15.9142 20.0672 15.1872 20.1158 14.1229C20.1644 13.0563 20.176 12.7158 20.176 10C20.176 7.28409 20.1644 6.94351 20.1158 5.87708V5.87708ZM18.3158 14.041C18.2714 15.016 18.1084 15.5455 17.9715 15.8978C17.6351 16.77 16.9458 17.4593 16.0736 17.7957C15.7213 17.9326 15.1918 18.0956 14.2168 18.14C13.1626 18.1882 12.8463 18.1982 10.176 18.1982C7.50552 18.1982 7.18936 18.1882 6.13498 18.14C5.1601 18.0956 4.63062 17.9326 4.27814 17.7957C3.84387 17.6353 3.45096 17.3798 3.12839 17.0476C2.7962 16.725 2.54062 16.3322 2.38025 15.8978C2.24338 15.5455 2.08041 15.016 2.03601 14.041C1.98795 12.9866 1.97772 12.6703 1.97772 10.0002C1.97772 7.32987 1.98795 7.0137 2.03601 5.95917C2.08057 4.98413 2.24338 4.45465 2.38025 4.10233C2.54062 3.66791 2.79636 3.27499 3.12839 2.95242C3.45096 2.62024 3.84387 2.36465 4.27829 2.20444C4.63062 2.06741 5.1601 1.9046 6.13513 1.86005C7.18951 1.81198 7.50583 1.80176 10.176 1.80176H10.1758C12.8459 1.80176 13.1623 1.81198 14.2168 1.8602C15.1918 1.9046 15.7212 2.06757 16.0736 2.20444C16.5079 2.36481 16.9008 2.62039 17.2234 2.95242C17.5556 3.27499 17.8112 3.66791 17.9714 4.10233C18.1084 4.45465 18.2714 4.98413 18.3158 5.95917C18.3638 7.01355 18.3741 7.32987 18.3741 10C18.3741 12.6703 18.364 12.9865 18.3158 14.041Z" fill="white"/>
<path d="M10.1758 4.86481C7.33981 4.86481 5.04077 7.164 5.04077 10C5.04077 12.836 7.33981 15.135 10.1758 15.135C13.012 15.135 15.311 12.836 15.311 10C15.311 7.164 13.012 4.86481 10.1758 4.86481V4.86481ZM10.1758 13.3333C8.33499 13.3331 6.84253 11.8408 6.84268 9.99985C6.84268 8.15903 8.33499 6.66656 10.176 6.66656C12.0169 6.66672 13.5092 8.15903 13.5092 9.99985C13.5092 11.8408 12.0168 13.3333 10.1758 13.3333V13.3333Z" fill="white"/>
<path d="M16.7139 4.66202C16.7139 5.32471 16.1766 5.86197 15.5139 5.86197C14.8511 5.86197 14.3138 5.32471 14.3138 4.66202C14.3138 3.99918 14.8511 3.46191 15.5139 3.46191C16.1766 3.46191 16.7139 3.99918 16.7139 4.66202V4.66202Z" fill="white"/>
</g>
<defs>
<clipPath id="clip0_165_644">
<rect width="20" height="20" fill="white" transform="translate(0.175964)"/>
</clipPath>
</defs>
</svg>
