<svg width="101" height="40" viewBox="0 0 101 40" fill="none" xmlns="http://www.w3.org/2000/svg">
<path d="M8.85081 22.6238C8.44975 21.2856 7.86441 19.4687 7.09481 17.173C6.32521 14.8773 5.56644 12.7449 4.81852 10.7756C4.08143 8.80634 3.53946 7.58235 3.1926 7.10363L1.77804 6.98939C1.37698 5.78172 1.17645 4.76445 1.17645 3.93758C1.55583 2.99102 2.12491 2.27295 2.88367 1.78335C3.64244 1.28288 4.56379 1.03264 5.64774 1.03264C7.31702 1.03264 8.5744 1.76159 9.41988 3.2195C9.95102 4.13341 10.4009 5.28125 10.7694 6.66299C11.1488 8.03386 11.5173 9.68761 11.875 11.6242C12.5796 15.3125 13.0132 18.3752 13.1758 20.8123L13.5497 20.747C13.8316 20.1269 14.1893 18.8648 14.6228 16.9608C15.0564 15.0568 15.4304 13.093 15.7447 11.0694C16.0591 9.03482 16.2162 7.50619 16.2162 6.48348L14.07 6.1734C13.9183 5.6294 13.8099 5.15613 13.7448 4.75357C13.6798 4.34013 13.6419 3.89406 13.631 3.41534C13.631 3.37182 13.631 3.31198 13.631 3.23582C13.6419 3.15966 13.6419 3.06718 13.631 2.95838C13.8695 2.67551 14.2651 2.38175 14.8179 2.07711C15.3708 1.77247 16.0103 1.5168 16.7365 1.31008C17.4736 1.10336 18.2107 1 18.9478 1C20.4328 1 21.5222 1.36992 22.2159 2.10975C22.9096 2.83871 23.2565 3.95934 23.2565 5.47164C23.2565 6.51612 23.1156 7.75643 22.8337 9.19257C22.5519 10.6287 22.1563 12.1138 21.6468 13.6479C21.2783 14.7576 20.7255 16.1448 19.9884 17.8095C19.2513 19.4632 18.46 21.0517 17.6145 22.5749C16.7799 24.0981 16.0265 25.2459 15.3545 26.0184C15.0402 26.2251 14.6608 26.3774 14.2164 26.4753C13.7719 26.5841 13.3275 26.6385 12.8831 26.6385C12.2652 26.6385 11.6311 26.5515 10.9808 26.3774C10.3412 26.2142 9.77216 25.9803 9.27355 25.6756C8.78577 25.371 8.44433 25.0228 8.24922 24.6312L8.85081 22.6238Z" fill="white"/>
<path d="M26.7847 25.5124C26.7847 25.0446 26.7631 23.6574 26.7197 21.3509C26.633 17.9781 26.5896 15.0623 26.5896 12.6034C26.5896 10.199 26.633 8.16442 26.7197 6.4998L24.0694 6.15708C23.9069 5.4934 23.7985 4.94397 23.7443 4.50877C23.6901 4.0627 23.6684 3.55134 23.6792 2.9747C23.896 2.70271 24.2971 2.41439 24.8824 2.10975C25.4786 1.79423 26.1506 1.53312 26.8986 1.3264C27.6573 1.11968 28.389 1.01632 29.0935 1.01632C30.3509 1.01632 31.3753 1.2992 32.1665 1.86495C32.9687 2.43071 33.3914 3.2467 33.4348 4.31293C33.4564 4.94397 33.4673 5.48252 33.4673 5.9286C33.4673 7.9849 33.3806 10.4655 33.2071 13.3705C33.0337 16.2645 32.8006 19.6863 32.508 23.6357L32.3454 25.9368C31.4891 26.4155 30.5135 26.6548 29.4187 26.6548C28.4865 26.6548 27.6085 26.4862 26.7847 26.1489V25.5124Z" fill="white"/>
<path d="M36.6216 21.0734C36.7191 21.1061 36.9251 21.1822 37.2394 21.3019C37.5646 21.4107 37.9223 21.5032 38.3125 21.5794V6.20604L35.7598 5.34109C35.5105 4.75357 35.3859 4.07902 35.3859 3.31742C35.3859 2.69727 35.4834 2.14239 35.6785 1.65279C36.459 1.44608 37.3966 1.28832 38.4914 1.17952C39.597 1.05984 40.6647 1 41.6944 1C43.2228 1 44.5723 1.11424 45.743 1.34272C46.285 2.39807 47.0871 4.38365 48.1494 7.29947C49.2225 10.2153 50.5124 14.0396 52.0191 18.7723L52.2955 18.7397C51.9811 16.0524 51.6668 12.9026 51.3524 9.29049C51.0489 5.66748 50.8972 3.18686 50.8972 1.84863C51.4608 1.58752 52.0895 1.38624 52.7832 1.2448C53.477 1.09248 54.1165 1.01632 54.7018 1.01632C55.6557 1.01632 56.5716 1.21216 57.4496 1.60384L55.8725 22.2321C56.4361 23.0481 56.7884 24.0056 56.9293 25.1044C56.4849 25.594 55.8075 25.9748 54.8969 26.2468C53.9973 26.508 53.038 26.6385 52.0191 26.6385C51.2278 26.6385 50.5069 26.5569 49.8566 26.3937C49.217 26.2305 48.7184 25.9803 48.3607 25.643C48.3716 24.827 48.442 24.0817 48.5721 23.4072C47.7591 21.7752 46.9733 19.98 46.2145 18.0216C45.4666 16.0524 44.5127 13.4412 43.3529 10.1881L42.6375 8.19706L42.5399 8.21338C42.7676 9.91065 43.0114 12.413 43.2716 15.7205C43.5317 19.0171 43.6618 21.427 43.6618 22.9502C43.6618 24.1688 43.2987 25.0881 42.5724 25.7083C41.857 26.3284 40.7352 26.6385 39.2068 26.6385C38.7298 26.6385 38.2204 26.546 37.6784 26.3611C37.1364 26.1761 36.6432 25.9422 36.1988 25.6593C35.7652 25.3656 35.4617 25.0827 35.2883 24.8107C35.2883 24.0273 35.4075 23.2821 35.646 22.5749C35.8845 21.8677 36.2097 21.3672 36.6216 21.0734Z" fill="white"/>
<path d="M61.7746 25.5124C61.7746 25.0446 61.7529 23.6574 61.7096 21.3509C61.6228 17.9781 61.5795 15.0623 61.5795 12.6034C61.5795 10.199 61.6228 8.16442 61.7096 6.4998L59.0593 6.15708C58.8967 5.4934 58.7883 4.94397 58.7341 4.50877C58.6799 4.0627 58.6582 3.55134 58.6691 2.9747C58.8859 2.70271 59.2869 2.41439 59.8723 2.10975C60.4684 1.79423 61.1405 1.53312 61.8884 1.3264C62.6472 1.11968 63.3788 1.01632 64.0834 1.01632C65.3408 1.01632 66.3651 1.2992 67.1564 1.86495C67.9585 2.43071 68.3813 3.2467 68.4246 4.31293C68.4463 4.94397 68.4571 5.48252 68.4571 5.9286C68.4571 7.9849 68.3704 10.4655 68.197 13.3705C68.0236 16.2645 67.7905 19.6863 67.4978 23.6357L67.3352 25.9368C66.4789 26.4155 65.5034 26.6548 64.4086 26.6548C63.4764 26.6548 62.5984 26.4862 61.7746 26.1489V25.5124Z" fill="white"/>
<path d="M19.1006 36.3488C19.4567 36.4908 19.7372 36.601 19.942 36.6793C20.1469 36.7576 20.3615 36.8262 20.5859 36.8849C20.6493 36.7234 20.681 36.5031 20.681 36.224C20.681 35.847 20.6542 35.1567 20.6005 34.153C20.5225 32.8115 20.4835 31.7834 20.4835 31.0685C20.4835 30.5741 20.4981 30.1481 20.5274 29.7907L19.3201 29.7173L19.2982 32.0306C18.9323 32.153 18.5202 32.2142 18.0617 32.2142C17.9446 32.2142 17.8568 32.2118 17.7983 32.2069C17.6373 32.0796 17.469 31.8788 17.2934 31.6047C17.1227 31.3305 16.9812 31.022 16.869 30.6793C16.7569 30.3366 16.7008 30.0061 16.7008 29.6879C16.7008 29.1395 16.791 28.7209 16.9715 28.4321C17.152 28.1432 17.4056 27.9449 17.7324 27.8372C18.0592 27.7246 18.4958 27.6512 19.0421 27.6169C19.8908 27.5679 20.8883 27.5312 22.0346 27.5067C23.1858 27.4774 24.2857 27.4627 25.3344 27.4627C25.4759 27.6438 25.5807 27.847 25.649 28.0722C25.7222 28.2974 25.7588 28.5226 25.7588 28.7479C25.7588 29.1689 25.6515 29.5214 25.4368 29.8054C25.2222 30.0894 24.9052 30.2313 24.4857 30.2313C24.2125 30.2313 23.8833 30.1824 23.4979 30.0845C23.4101 32.3856 23.2833 34.5104 23.1175 36.459C23.0833 36.836 23.0272 37.1689 22.9492 37.4578C22.8711 37.7466 22.7516 37.9988 22.5907 38.2142C22.3907 38.4786 22.1151 38.6744 21.7639 38.8017C21.4127 38.929 21.0249 38.9927 20.6005 38.9927C20.2006 38.9927 19.8055 38.9217 19.4152 38.7797C19.0299 38.6377 18.7397 38.3758 18.5446 37.9939C18.5494 37.6756 18.5885 37.3941 18.6616 37.1493C18.7348 36.8996 18.8811 36.6328 19.1006 36.3488Z" fill="#F4B331"/>
<path d="M25.6051 36.4884C25.9027 36.5863 26.1734 36.6646 26.4173 36.7234C26.8904 34.814 27.4294 32.5594 28.0343 29.9596L26.2709 29.7687C26.1588 29.4602 26.1027 29.1102 26.1027 28.7185C26.1027 28.4198 26.1368 28.1285 26.2051 27.8446C26.9124 27.7075 27.727 27.6095 28.6489 27.5508C29.5756 27.4871 30.3707 27.4553 31.0341 27.4553C31.5121 27.4553 31.8706 27.4578 32.1096 27.4627L32.5706 27.727C33.39 29.9841 34.2217 33.0367 35.0656 36.8849C35.0753 36.9241 35.0924 37.0024 35.1168 37.12C35.146 37.2375 35.168 37.3501 35.1826 37.4578C35.1973 37.5606 35.2046 37.6585 35.2046 37.7515C35.2046 38.1628 35.0582 38.4957 34.7656 38.7503C34.3558 38.9119 33.8608 38.9927 33.2803 38.9927C33.0071 38.9927 32.7315 38.9633 32.4535 38.9045C32.1755 38.8458 31.9877 38.7552 31.8901 38.6328L31.9779 36.7381L31.795 35.754C31.478 35.7736 31.1048 35.7834 30.6756 35.7834C30.2171 35.7834 29.7878 35.7687 29.3878 35.7393L29.3 36.1359C29.1098 36.9878 28.9537 37.5924 28.8318 37.9498C28.7147 38.3072 28.5391 38.5716 28.305 38.743C28.0757 38.9143 27.7318 39 27.2733 39C26.9758 39 26.6758 38.9608 26.3734 38.8825C26.071 38.8091 25.7978 38.7087 25.5539 38.5814C25.31 38.4541 25.1271 38.317 25.0052 38.1701C25.0052 37.8176 25.0588 37.4823 25.1661 37.164C25.2734 36.8458 25.4198 36.6206 25.6051 36.4884ZM30.7341 30.0257H30.3975L29.8707 33.6463H31.5097L30.7341 30.0257Z" fill="#F4B331"/>
<path d="M36.6094 33.4113C36.6094 31.9278 36.6313 30.7895 36.6752 29.9963H36.6679L35.5485 29.8421C35.485 29.661 35.4363 29.4627 35.4021 29.2472C35.368 29.0269 35.3509 28.814 35.3509 28.6083C35.3509 28.4517 35.3631 28.2803 35.3875 28.0942C35.9826 27.8935 36.7606 27.7393 37.7215 27.6316C38.6824 27.519 39.5994 27.4627 40.4726 27.4627C41.2189 27.4627 41.8603 27.5214 42.3968 27.6389C42.9334 27.7515 43.3822 28.011 43.7431 28.4174C44.1089 28.8188 44.2919 29.4186 44.2919 30.2166C44.2919 30.53 44.2065 30.8849 44.0358 31.2815C43.8651 31.6732 43.6407 32.0428 43.3626 32.3905C43.0895 32.7332 42.8041 32.9976 42.5066 33.1836C42.8773 33.2472 43.2212 33.377 43.5382 33.5728C43.8602 33.7638 44.1211 34.0257 44.3211 34.3586C44.5211 34.6867 44.6211 35.0759 44.6211 35.5263C44.6211 36.1285 44.5065 36.6475 44.2772 37.0832C44.048 37.519 43.7212 37.8788 43.2968 38.1628C42.4676 38.716 41.2969 38.9927 39.7848 38.9927C39.1897 38.9927 38.6605 38.9804 38.1971 38.9559C37.7386 38.9364 37.3142 38.8972 36.924 38.8384C36.7142 37.7026 36.6094 35.8935 36.6094 33.4113ZM40.7725 32.9486C40.8994 32.5912 41.0067 32.1383 41.0945 31.59C41.1872 31.0367 41.2433 30.5863 41.2628 30.2387C41.2384 30.1946 41.114 30.1579 40.8896 30.1285C40.6652 30.0942 40.375 30.0771 40.0189 30.0771C39.9067 30.0771 39.719 30.0845 39.4556 30.0991C39.4165 31.2007 39.358 32.1897 39.28 33.0661L40.0189 33.0073L40.7725 32.9486ZM40.4067 37.0685C40.8164 37.0685 41.1091 37.0514 41.2847 37.0171C41.4067 36.9437 41.514 36.8115 41.6066 36.6206C41.7042 36.4296 41.7774 36.2215 41.8261 35.9963C41.8749 35.7662 41.8993 35.5606 41.8993 35.3794C41.8115 35.1248 41.375 34.9976 40.5896 34.9976C40.2579 34.9976 39.8775 35.0196 39.4482 35.0636C39.3312 35.0783 39.2434 35.0857 39.1848 35.0857L39.1629 36.1579C39.158 36.2656 39.1531 36.3905 39.1483 36.5324C39.1434 36.6744 39.1409 36.8335 39.1409 37.0098C39.4629 37.049 39.8141 37.0685 40.1945 37.0685H40.4067Z" fill="#F4B331"/>
<path d="M45.4772 36.4884C45.7747 36.5863 46.0454 36.6646 46.2893 36.7234C46.7624 34.814 47.3014 32.5594 47.9063 29.9596L46.143 29.7687C46.0308 29.4602 45.9747 29.1102 45.9747 28.7185C45.9747 28.4198 46.0088 28.1285 46.0771 27.8446C46.7844 27.7075 47.599 27.6095 48.5209 27.5508C49.4477 27.4871 50.2427 27.4553 50.9061 27.4553C51.3841 27.4553 51.7426 27.4578 51.9817 27.4627L52.4426 27.727C53.2621 29.9841 54.0937 33.0367 54.9376 36.8849C54.9473 36.9241 54.9644 37.0024 54.9888 37.12C55.0181 37.2375 55.04 37.3501 55.0547 37.4578C55.0693 37.5606 55.0766 37.6585 55.0766 37.7515C55.0766 38.1628 54.9303 38.4957 54.6376 38.7503C54.2279 38.9119 53.7328 38.9927 53.1523 38.9927C52.8792 38.9927 52.6036 38.9633 52.3255 38.9045C52.0475 38.8458 51.8597 38.7552 51.7622 38.6328L51.85 36.7381L51.667 35.754C51.35 35.7736 50.9768 35.7834 50.5476 35.7834C50.0891 35.7834 49.6598 35.7687 49.2599 35.7393L49.1721 36.1359C48.9818 36.9878 48.8257 37.5924 48.7038 37.9498C48.5867 38.3072 48.4111 38.5716 48.177 38.743C47.9477 38.9143 47.6039 39 47.1454 39C46.8478 39 46.5478 38.9608 46.2454 38.8825C45.943 38.8091 45.6698 38.7087 45.4259 38.5814C45.1821 38.4541 44.9991 38.317 44.8772 38.1701C44.8772 37.8176 44.9308 37.4823 45.0382 37.164C45.1455 36.8458 45.2918 36.6206 45.4772 36.4884ZM50.6061 30.0257H50.2696L49.7428 33.6463H51.3817L50.6061 30.0257Z" fill="#F4B331"/>
<path d="M55.7278 33.235C55.7278 32.1236 55.8912 31.1346 56.218 30.2681C56.5497 29.3966 57.0667 28.7087 57.7691 28.2044C58.4715 27.7001 59.3593 27.448 60.4324 27.448C61.1641 27.448 61.9372 27.5435 62.7518 27.7344C63.0152 27.8911 63.2444 28.0551 63.4395 28.2264C63.6395 28.3929 63.8298 28.5961 64.0102 28.836C64.0102 29.1836 63.9639 29.6463 63.8712 30.224C63.7785 30.7968 63.6615 31.3329 63.52 31.8323C63.3834 32.3268 63.2517 32.6475 63.1249 32.7944C62.9981 32.858 62.8908 32.9021 62.803 32.9266C62.7152 32.9461 62.5786 32.9559 62.3933 32.9559C62.164 32.9559 61.9494 32.9388 61.7494 32.9045C61.5494 32.8703 61.3982 32.8237 61.2958 32.765L61.0397 30.2901C60.6934 30.1922 60.2129 30.1432 59.5983 30.1432C59.4325 30.1432 59.3105 30.1457 59.2325 30.1506C59.0227 30.8262 58.9057 31.7344 58.8813 32.8752C58.8764 33.0122 58.8739 33.2203 58.8739 33.4994C58.8739 34.1554 58.9081 34.6867 58.9764 35.093C59.0398 35.4749 59.1081 35.7613 59.1812 35.9523C59.2544 36.1432 59.3812 36.2901 59.5617 36.3929C59.7471 36.4957 60.0227 36.5471 60.3885 36.5471C60.8811 36.5471 61.3348 36.4761 61.7494 36.3341C62.1689 36.1873 62.625 35.9743 63.1176 35.6952C63.303 35.896 63.4444 36.06 63.542 36.1873C63.6444 36.3146 63.7371 36.4712 63.82 36.6573C63.9078 36.8433 63.9663 37.0563 63.9956 37.2962C63.9176 37.4578 63.7103 37.6732 63.3737 37.9425C63.0371 38.2118 62.5957 38.4541 62.0494 38.6695C61.5031 38.8849 60.8909 38.9927 60.2129 38.9927C58.6276 38.9927 57.4838 38.4957 56.7814 37.5018C56.079 36.508 55.7278 35.0857 55.7278 33.235Z" fill="#F4B331"/>
<path d="M64.6907 36.4884C64.9882 36.5863 65.2589 36.6646 65.5028 36.7234C65.976 34.814 66.515 32.5594 67.1198 29.9596L65.3565 29.7687C65.2443 29.4602 65.1882 29.1102 65.1882 28.7185C65.1882 28.4198 65.2224 28.1285 65.2907 27.8446C65.9979 27.7075 66.8125 27.6095 67.7344 27.5508C68.6612 27.4871 69.4563 27.4553 70.1196 27.4553C70.5977 27.4553 70.9562 27.4578 71.1952 27.4627L71.6561 27.727C72.4756 29.9841 73.3073 33.0367 74.1511 36.8849C74.1609 36.9241 74.1779 37.0024 74.2023 37.12C74.2316 37.2375 74.2536 37.3501 74.2682 37.4578C74.2828 37.5606 74.2901 37.6585 74.2901 37.7515C74.2901 38.1628 74.1438 38.4957 73.8511 38.7503C73.4414 38.9119 72.9463 38.9927 72.3659 38.9927C72.0927 38.9927 71.8171 38.9633 71.5391 38.9045C71.261 38.8458 71.0732 38.7552 70.9757 38.6328L71.0635 36.7381L70.8806 35.754C70.5635 35.7736 70.1904 35.7834 69.7611 35.7834C69.3026 35.7834 68.8734 35.7687 68.4734 35.7393L68.3856 36.1359C68.1954 36.9878 68.0393 37.5924 67.9173 37.9498C67.8003 38.3072 67.6247 38.5716 67.3905 38.743C67.1613 38.9143 66.8174 39 66.3589 39C66.0613 39 65.7614 38.9608 65.4589 38.8825C65.1565 38.8091 64.8834 38.7087 64.6395 38.5814C64.3956 38.4541 64.2127 38.317 64.0907 38.1701C64.0907 37.8176 64.1444 37.4823 64.2517 37.164C64.359 36.8458 64.5053 36.6206 64.6907 36.4884ZM69.8197 30.0257H69.4831L68.9563 33.6463H70.5952L69.8197 30.0257Z" fill="#F4B331"/>
<path d="M75.7461 33.0147C75.7461 31.8837 75.7657 30.88 75.8047 30.0037L74.8169 29.8494C74.7535 29.6683 74.7047 29.4676 74.6706 29.2472C74.6365 29.0269 74.6194 28.814 74.6194 28.6083C74.6194 28.4517 74.6316 28.2803 74.656 28.0942C75.295 27.869 76.1388 27.7075 77.1875 27.6095C78.2362 27.5116 79.2606 27.4627 80.2605 27.4627C81.0068 27.4627 81.6482 27.5214 82.1848 27.6389C82.7214 27.7564 83.1701 28.0233 83.5311 28.4394C83.8969 28.8507 84.0798 29.4676 84.0798 30.2901C84.0798 30.6279 84.0262 31.0024 83.9188 31.4137C83.8115 31.8201 83.6628 32.2264 83.4725 32.6328C83.2969 33.0049 83.0969 33.3599 82.8726 33.6977C82.6531 34.0306 82.4238 34.317 82.1848 34.5569C82.3263 34.929 82.4726 35.2693 82.6238 35.5777C82.775 35.8813 83.0067 36.2509 83.3189 36.6867L84.3432 36.2534C84.7237 36.5814 84.9456 37.0171 85.009 37.5606C85.009 37.59 84.892 37.7295 84.6578 37.9792C84.4286 38.2289 84.1286 38.4614 83.7579 38.6769C83.3872 38.8874 82.9701 38.9927 82.5067 38.9927C82.1458 38.9927 81.8214 38.929 81.5336 38.8017C81.2507 38.6744 81.0166 38.4517 80.8312 38.1334C80.6507 37.8201 80.5068 37.448 80.3995 37.0171C80.2922 36.5863 80.2166 36.1603 80.1727 35.7393L78.5045 35.6659C78.5484 36.0477 78.6045 36.4419 78.6728 36.8482C78.7411 37.2497 78.7826 37.492 78.7972 37.5753C78.8801 38.06 78.9338 38.3905 78.9582 38.5667C78.7338 38.7038 78.4606 38.8091 78.1387 38.8825C77.8216 38.9559 77.4973 38.9927 77.1656 38.9927C76.7851 38.9927 76.4168 38.9412 76.0608 38.8384C75.9535 38.4076 75.873 37.6536 75.8193 36.5765C75.7705 35.4945 75.7461 34.3072 75.7461 33.0147ZM80.2971 33.896C80.4678 33.4064 80.602 32.8752 80.6995 32.3023C80.802 31.7246 80.8946 31.0367 80.9776 30.2387C80.8361 30.1848 80.6507 30.1432 80.4215 30.1138C80.1922 30.0845 79.9703 30.0698 79.7557 30.0698C79.2679 30.0698 78.9021 30.082 78.6582 30.1065C78.6045 31.9474 78.546 33.2521 78.4826 34.0208L80.2971 33.896Z" fill="#F4B331"/>
<path d="M86.2821 38.4859C86.2821 38.2754 86.2724 37.6512 86.2529 36.6132C86.2138 35.0955 86.1943 33.7834 86.1943 32.6769C86.1943 31.5949 86.2138 30.6793 86.2529 29.9302L85.0602 29.776C84.9871 29.4774 84.9383 29.2301 84.9139 29.0343C84.8895 28.8335 84.8798 28.6034 84.8846 28.3439C84.9822 28.2215 85.1627 28.0918 85.4261 27.9547C85.6944 27.8127 85.9968 27.6952 86.3333 27.6022C86.6748 27.5092 87.004 27.4627 87.3211 27.4627C87.8869 27.4627 88.3479 27.59 88.7039 27.8446C89.0649 28.0991 89.2551 28.4663 89.2746 28.9461C89.2844 29.2301 89.2893 29.4725 89.2893 29.6732C89.2893 30.5985 89.2502 31.7148 89.1722 33.022C89.0942 34.3244 88.9893 35.8641 88.8576 37.6414L88.7844 38.6769C88.3991 38.8923 87.9601 39 87.4674 39C87.0479 39 86.6528 38.9241 86.2821 38.7723V38.4859Z" fill="#F4B331"/>
<path d="M90.577 36.4884C90.8745 36.5863 91.1453 36.6646 91.3892 36.7234C91.8623 34.814 92.4013 32.5594 93.0061 29.9596L91.2428 29.7687C91.1306 29.4602 91.0745 29.1102 91.0745 28.7185C91.0745 28.4198 91.1087 28.1285 91.177 27.8446C91.8842 27.7075 92.6988 27.6095 93.6207 27.5508C94.5475 27.4871 95.3426 27.4553 96.006 27.4553C96.484 27.4553 96.8425 27.4578 97.0815 27.4627L97.5425 27.727C98.3619 29.9841 99.1936 33.0367 100.037 36.8849C100.047 36.9241 100.064 37.0024 100.089 37.12C100.118 37.2375 100.14 37.3501 100.154 37.4578C100.169 37.5606 100.176 37.6585 100.176 37.7515C100.176 38.1628 100.03 38.4957 99.7375 38.7503C99.3277 38.9119 98.8326 38.9927 98.2522 38.9927C97.979 38.9927 97.7034 38.9633 97.4254 38.9045C97.1474 38.8458 96.9596 38.7552 96.862 38.6328L96.9498 36.7381L96.7669 35.754C96.4498 35.7736 96.0767 35.7834 95.6474 35.7834C95.1889 35.7834 94.7597 35.7687 94.3597 35.7393L94.2719 36.1359C94.0817 36.9878 93.9256 37.5924 93.8036 37.9498C93.6866 38.3072 93.511 38.5716 93.2768 38.743C93.0476 38.9143 92.7037 39 92.2452 39C91.9477 39 91.6477 38.9608 91.3453 38.8825C91.0428 38.8091 90.7697 38.7087 90.5258 38.5814C90.2819 38.4541 90.099 38.317 89.977 38.1701C89.977 37.8176 90.0307 37.4823 90.138 37.164C90.2453 36.8458 90.3916 36.6206 90.577 36.4884ZM95.706 30.0257H95.3694L94.8426 33.6463H96.4815L95.706 30.0257Z" fill="#F4B331"/>
<path d="M72.1938 18.8016C72.2631 17.9789 72.1678 16.928 71.7638 14.592C71.5575 14.67 71.3276 14.6864 71.1006 14.6254C70.5107 14.4667 70.1642 13.8445 70.3267 13.2357C70.4892 12.6269 71.0992 12.262 71.6892 12.4206C72.2792 12.5793 72.6257 13.2015 72.4631 13.8103C72.3631 14.1849 72.0937 14.4672 71.7638 14.592C71.7638 14.592 73.0876 16.6789 73.698 16.8431C75.1478 17.233 75.6851 12.5913 75.6851 12.5913C75.5694 12.5992 75.4508 12.5884 75.333 12.5567C74.743 12.398 74.3965 11.7758 74.5591 11.167C74.7216 10.5581 75.3316 10.1932 75.9216 10.3519C76.5115 10.5106 76.858 11.1327 76.6955 11.7416C76.5654 12.2288 76.1487 12.5599 75.6851 12.5913C76.192 14.8092 77.102 15.7331 77.7887 15.9178C78.8895 16.2138 80.1507 14.7062 81.6267 12.1986C81.1529 11.956 80.9042 11.4353 81.0151 10.8778C81.1471 10.2142 81.8425 9.75002 82.496 9.92578C83.1495 10.1015 83.5205 10.8525 83.3042 11.4935C83.1225 12.0319 82.6478 12.358 82.1166 12.3303C82.1457 15.2428 82.3343 17.1403 83.4351 17.4364C84.1218 17.6211 85.3702 17.2777 86.9139 15.6113C86.5281 15.3514 86.3321 14.8556 86.4622 14.3683C86.6247 13.7595 87.2347 13.3945 87.8247 13.5532C88.4147 13.7119 88.7612 14.3341 88.5986 14.9429C88.4361 15.5517 87.8261 15.9167 87.2361 15.758C87.1183 15.7263 87.0102 15.6761 86.9139 15.6113C86.9139 15.6113 85.0671 19.9008 86.5168 20.2907C87.1272 20.4548 89.3133 19.3119 89.3133 19.3119C89.0897 19.0382 88.997 18.6586 89.097 18.284C89.2595 17.6751 89.8695 17.3102 90.4595 17.4689C91.0495 17.6275 91.396 18.2497 91.2335 18.8586C91.0709 19.4674 90.4609 19.8323 89.8709 19.6737C89.644 19.6126 89.4531 19.483 89.3133 19.3119C87.7997 21.1321 87.1937 21.9944 86.8438 22.7417L72.1938 18.8016Z" fill="url(#paint0_linear_165_505)"/>
<path d="M71.6473 20.8489L72.0257 19.4315L86.6757 23.3716L86.2973 24.789L71.6473 20.8489Z" fill="url(#paint1_linear_165_505)"/>
<path d="M71.7638 14.592C72.1678 16.928 72.2631 17.9789 72.1938 18.8016L86.8438 22.7417C87.1937 21.9944 87.7997 21.1321 89.3133 19.3119M71.7638 14.592C71.7638 14.592 73.0876 16.6789 73.698 16.8431C75.1478 17.233 75.6851 12.5913 75.6851 12.5913M71.7638 14.592C71.5575 14.67 71.3276 14.6864 71.1006 14.6254C70.5107 14.4667 70.1642 13.8445 70.3267 13.2357C70.4892 12.6269 71.0992 12.262 71.6892 12.4206C72.2792 12.5793 72.6257 13.2015 72.4631 13.8103C72.3631 14.1849 72.0937 14.4672 71.7638 14.592ZM75.6851 12.5913C76.192 14.8092 77.102 15.7331 77.7887 15.9178C78.8895 16.2138 80.1507 14.7062 81.6267 12.1986M75.6851 12.5913C75.5694 12.5992 75.4508 12.5884 75.333 12.5567C74.743 12.398 74.3965 11.7758 74.5591 11.167C74.7216 10.5581 75.3316 10.1932 75.9216 10.3519C76.5115 10.5106 76.858 11.1327 76.6955 11.7416C76.5654 12.2288 76.1487 12.5599 75.6851 12.5913ZM81.6267 12.1986C81.6782 12.2249 81.7693 12.2622 81.8654 12.288C81.9614 12.3139 82.0588 12.3273 82.1166 12.3303M81.6267 12.1986C81.1529 11.956 80.9042 11.4353 81.0151 10.8778C81.1471 10.2142 81.8425 9.75002 82.496 9.92578C83.1495 10.1015 83.5205 10.8525 83.3042 11.4935C83.1225 12.0319 82.6478 12.358 82.1166 12.3303M89.3133 19.3119C89.3133 19.3119 87.1272 20.4548 86.5168 20.2907C85.0671 19.9008 86.9139 15.6113 86.9139 15.6113M89.3133 19.3119C89.4531 19.483 89.644 19.6126 89.8709 19.6737C90.4609 19.8323 91.0709 19.4674 91.2335 18.8586C91.396 18.2497 91.0495 17.6275 90.4595 17.4689C89.8695 17.3102 89.2595 17.6751 89.097 18.284C88.997 18.6586 89.0897 19.0382 89.3133 19.3119ZM86.9139 15.6113C85.3702 17.2777 84.1218 17.6211 83.4351 17.4364C82.3343 17.1403 82.1457 15.2428 82.1166 12.3303M86.9139 15.6113C87.0102 15.6761 87.1183 15.7263 87.2361 15.758C87.8261 15.9167 88.4361 15.5517 88.5986 14.9429C88.7612 14.3341 88.4147 13.7119 87.8247 13.5532C87.2347 13.3945 86.6247 13.7595 86.4622 14.3683C86.3321 14.8556 86.5281 15.3514 86.9139 15.6113ZM8.85081 22.6238C8.44975 21.2856 7.86441 19.4687 7.09481 17.173C6.32521 14.8773 5.56644 12.7449 4.81852 10.7756C4.08143 8.80634 3.53946 7.58235 3.1926 7.10363L1.77804 6.98939C1.37698 5.78172 1.17645 4.76445 1.17645 3.93758C1.55583 2.99102 2.12491 2.27295 2.88367 1.78335C3.64244 1.28288 4.56379 1.03264 5.64774 1.03264C7.31702 1.03264 8.5744 1.76159 9.41988 3.2195C9.95102 4.13341 10.4009 5.28125 10.7694 6.66299C11.1488 8.03386 11.5173 9.68761 11.875 11.6242C12.5796 15.3125 13.0132 18.3752 13.1758 20.8123L13.5497 20.747C13.8316 20.1269 14.1893 18.8648 14.6228 16.9608C15.0564 15.0568 15.4304 13.093 15.7447 11.0694C16.0591 9.03482 16.2162 7.50619 16.2162 6.48348L14.07 6.1734C13.9183 5.6294 13.8099 5.15613 13.7448 4.75357C13.6798 4.34013 13.6419 3.89406 13.631 3.41534C13.631 3.37182 13.631 3.31198 13.631 3.23582C13.6419 3.15966 13.6419 3.06718 13.631 2.95838C13.8695 2.67551 14.2651 2.38175 14.8179 2.07711C15.3708 1.77247 16.0103 1.5168 16.7365 1.31008C17.4736 1.10336 18.2107 1 18.9478 1C20.4328 1 21.5222 1.36992 22.2159 2.10975C22.9096 2.83871 23.2565 3.95934 23.2565 5.47164C23.2565 6.51612 23.1156 7.75643 22.8337 9.19257C22.5519 10.6287 22.1563 12.1138 21.6468 13.6479C21.2783 14.7576 20.7255 16.1448 19.9884 17.8095C19.2513 19.4632 18.46 21.0517 17.6145 22.5749C16.7799 24.0981 16.0265 25.2459 15.3545 26.0184C15.0402 26.2251 14.6608 26.3774 14.2164 26.4753C13.7719 26.5841 13.3275 26.6385 12.8831 26.6385C12.2652 26.6385 11.6311 26.5515 10.9808 26.3774C10.3412 26.2142 9.77216 25.9803 9.27355 25.6756C8.78577 25.371 8.44433 25.0228 8.24922 24.6312L8.85081 22.6238ZM26.7847 25.5124C26.7847 25.0446 26.7631 23.6574 26.7197 21.3509C26.633 17.9781 26.5896 15.0623 26.5896 12.6034C26.5896 10.199 26.633 8.16442 26.7197 6.4998L24.0694 6.15708C23.9069 5.4934 23.7985 4.94397 23.7443 4.50877C23.6901 4.0627 23.6684 3.55134 23.6792 2.9747C23.896 2.70271 24.2971 2.41439 24.8824 2.10975C25.4786 1.79423 26.1506 1.53312 26.8986 1.3264C27.6573 1.11968 28.389 1.01632 29.0935 1.01632C30.3509 1.01632 31.3753 1.2992 32.1665 1.86495C32.9687 2.43071 33.3914 3.2467 33.4348 4.31293C33.4564 4.94397 33.4673 5.48252 33.4673 5.9286C33.4673 7.9849 33.3806 10.4655 33.2071 13.3705C33.0337 16.2645 32.8006 19.6863 32.508 23.6357L32.3454 25.9368C31.4891 26.4155 30.5135 26.6548 29.4187 26.6548C28.4865 26.6548 27.6085 26.4862 26.7847 26.1489V25.5124ZM36.6216 21.0734C36.7191 21.1061 36.9251 21.1822 37.2394 21.3019C37.5646 21.4107 37.9223 21.5032 38.3125 21.5794V6.20604L35.7598 5.34109C35.5105 4.75357 35.3859 4.07902 35.3859 3.31742C35.3859 2.69727 35.4834 2.14239 35.6785 1.65279C36.459 1.44608 37.3966 1.28832 38.4914 1.17952C39.597 1.05984 40.6647 1 41.6944 1C43.2228 1 44.5723 1.11424 45.743 1.34272C46.285 2.39807 47.0871 4.38365 48.1494 7.29947C49.2225 10.2153 50.5124 14.0396 52.0191 18.7723L52.2955 18.7397C51.9811 16.0524 51.6668 12.9026 51.3524 9.29049C51.0489 5.66748 50.8972 3.18686 50.8972 1.84863C51.4608 1.58752 52.0895 1.38624 52.7832 1.2448C53.477 1.09248 54.1165 1.01632 54.7018 1.01632C55.6557 1.01632 56.5716 1.21216 57.4496 1.60384L55.8725 22.2321C56.4361 23.0481 56.7884 24.0056 56.9293 25.1044C56.4849 25.594 55.8075 25.9748 54.8969 26.2468C53.9973 26.508 53.038 26.6385 52.0191 26.6385C51.2278 26.6385 50.5069 26.5569 49.8566 26.3937C49.217 26.2305 48.7184 25.9803 48.3607 25.643C48.3716 24.827 48.442 24.0817 48.5721 23.4072C47.7591 21.7752 46.9733 19.98 46.2145 18.0216C45.4666 16.0524 44.5127 13.4412 43.3529 10.1881L42.6375 8.19706L42.5399 8.21338C42.7676 9.91065 43.0114 12.413 43.2716 15.7205C43.5317 19.0171 43.6618 21.427 43.6618 22.9502C43.6618 24.1688 43.2987 25.0881 42.5724 25.7083C41.857 26.3284 40.7352 26.6385 39.2068 26.6385C38.7298 26.6385 38.2204 26.546 37.6784 26.3611C37.1364 26.1761 36.6432 25.9422 36.1988 25.6593C35.7652 25.3656 35.4617 25.0827 35.2883 24.8107C35.2883 24.0273 35.4075 23.2821 35.646 22.5749C35.8845 21.8677 36.2097 21.3672 36.6216 21.0734ZM61.7746 25.5124C61.7746 25.0446 61.7529 23.6574 61.7096 21.3509C61.6228 17.9781 61.5795 15.0623 61.5795 12.6034C61.5795 10.199 61.6228 8.16442 61.7096 6.4998L59.0593 6.15708C58.8967 5.4934 58.7883 4.94397 58.7341 4.50877C58.6799 4.0627 58.6582 3.55134 58.6691 2.9747C58.8859 2.70271 59.2869 2.41439 59.8723 2.10975C60.4684 1.79423 61.1405 1.53312 61.8884 1.3264C62.6472 1.11968 63.3788 1.01632 64.0834 1.01632C65.3408 1.01632 66.3651 1.2992 67.1564 1.86495C67.9585 2.43071 68.3813 3.2467 68.4246 4.31293C68.4463 4.94397 68.4571 5.48252 68.4571 5.9286C68.4571 7.9849 68.3704 10.4655 68.197 13.3705C68.0236 16.2645 67.7905 19.6863 67.4978 23.6357L67.3352 25.9368C66.4789 26.4155 65.5034 26.6548 64.4086 26.6548C63.4764 26.6548 62.5984 26.4862 61.7746 26.1489V25.5124ZM19.1006 36.3488C19.4567 36.4908 19.7372 36.601 19.942 36.6793C20.1469 36.7576 20.3615 36.8262 20.5859 36.8849C20.6493 36.7234 20.681 36.5031 20.681 36.224C20.681 35.847 20.6542 35.1567 20.6005 34.153C20.5225 32.8115 20.4835 31.7834 20.4835 31.0685C20.4835 30.5741 20.4981 30.1481 20.5274 29.7907L19.3201 29.7173L19.2982 32.0306C18.9323 32.153 18.5202 32.2142 18.0617 32.2142C17.9446 32.2142 17.8568 32.2118 17.7983 32.2069C17.6373 32.0796 17.469 31.8788 17.2934 31.6047C17.1227 31.3305 16.9812 31.022 16.869 30.6793C16.7569 30.3366 16.7008 30.0061 16.7008 29.6879C16.7008 29.1395 16.791 28.7209 16.9715 28.4321C17.152 28.1432 17.4056 27.9449 17.7324 27.8372C18.0592 27.7246 18.4958 27.6512 19.0421 27.6169C19.8908 27.5679 20.8883 27.5312 22.0346 27.5067C23.1858 27.4774 24.2857 27.4627 25.3344 27.4627C25.4759 27.6438 25.5807 27.847 25.649 28.0722C25.7222 28.2974 25.7588 28.5226 25.7588 28.7479C25.7588 29.1689 25.6515 29.5214 25.4368 29.8054C25.2222 30.0894 24.9052 30.2313 24.4857 30.2313C24.2125 30.2313 23.8833 30.1824 23.4979 30.0845C23.4101 32.3856 23.2833 34.5104 23.1175 36.459C23.0833 36.836 23.0272 37.1689 22.9492 37.4578C22.8711 37.7466 22.7516 37.9988 22.5907 38.2142C22.3907 38.4786 22.1151 38.6744 21.7639 38.8017C21.4127 38.929 21.0249 38.9927 20.6005 38.9927C20.2006 38.9927 19.8055 38.9217 19.4152 38.7797C19.0299 38.6377 18.7397 38.3758 18.5446 37.9939C18.5494 37.6756 18.5885 37.3941 18.6616 37.1493C18.7348 36.8996 18.8811 36.6328 19.1006 36.3488ZM25.6051 36.4884C25.9027 36.5863 26.1734 36.6646 26.4173 36.7234C26.8904 34.814 27.4294 32.5594 28.0343 29.9596L26.2709 29.7687C26.1588 29.4602 26.1027 29.1102 26.1027 28.7185C26.1027 28.4198 26.1368 28.1285 26.2051 27.8446C26.9124 27.7075 27.727 27.6095 28.6489 27.5508C29.5756 27.4871 30.3707 27.4553 31.0341 27.4553C31.5121 27.4553 31.8706 27.4578 32.1096 27.4627L32.5706 27.727C33.39 29.9841 34.2217 33.0367 35.0656 36.8849C35.0753 36.9241 35.0924 37.0024 35.1168 37.12C35.146 37.2375 35.168 37.3501 35.1826 37.4578C35.1973 37.5606 35.2046 37.6585 35.2046 37.7515C35.2046 38.1628 35.0582 38.4957 34.7656 38.7503C34.3558 38.9119 33.8608 38.9927 33.2803 38.9927C33.0071 38.9927 32.7315 38.9633 32.4535 38.9045C32.1755 38.8458 31.9877 38.7552 31.8901 38.6328L31.9779 36.7381L31.795 35.754C31.478 35.7736 31.1048 35.7834 30.6756 35.7834C30.2171 35.7834 29.7878 35.7687 29.3878 35.7393L29.3 36.1359C29.1098 36.9878 28.9537 37.5924 28.8318 37.9498C28.7147 38.3072 28.5391 38.5716 28.305 38.743C28.0757 38.9143 27.7318 39 27.2733 39C26.9758 39 26.6758 38.9608 26.3734 38.8825C26.071 38.8091 25.7978 38.7087 25.5539 38.5814C25.31 38.4541 25.1271 38.317 25.0052 38.1701C25.0052 37.8176 25.0588 37.4823 25.1661 37.164C25.2734 36.8458 25.4198 36.6206 25.6051 36.4884ZM30.7341 30.0257H30.3975L29.8707 33.6463H31.5097L30.7341 30.0257ZM36.6094 33.4113C36.6094 31.9278 36.6313 30.7895 36.6752 29.9963H36.6679L35.5485 29.8421C35.485 29.661 35.4363 29.4627 35.4021 29.2472C35.368 29.0269 35.3509 28.814 35.3509 28.6083C35.3509 28.4517 35.3631 28.2803 35.3875 28.0942C35.9826 27.8935 36.7606 27.7393 37.7215 27.6316C38.6824 27.519 39.5994 27.4627 40.4726 27.4627C41.2189 27.4627 41.8603 27.5214 42.3968 27.6389C42.9334 27.7515 43.3822 28.011 43.7431 28.4174C44.1089 28.8188 44.2919 29.4186 44.2919 30.2166C44.2919 30.53 44.2065 30.8849 44.0358 31.2815C43.8651 31.6732 43.6407 32.0428 43.3626 32.3905C43.0895 32.7332 42.8041 32.9976 42.5066 33.1836C42.8773 33.2472 43.2212 33.377 43.5382 33.5728C43.8602 33.7638 44.1211 34.0257 44.3211 34.3586C44.5211 34.6867 44.6211 35.0759 44.6211 35.5263C44.6211 36.1285 44.5065 36.6475 44.2772 37.0832C44.048 37.519 43.7212 37.8788 43.2968 38.1628C42.4676 38.716 41.2969 38.9927 39.7848 38.9927C39.1897 38.9927 38.6605 38.9804 38.1971 38.9559C37.7386 38.9364 37.3142 38.8972 36.924 38.8384C36.7142 37.7026 36.6094 35.8935 36.6094 33.4113ZM40.7725 32.9486C40.8994 32.5912 41.0067 32.1383 41.0945 31.59C41.1872 31.0367 41.2433 30.5863 41.2628 30.2387C41.2384 30.1946 41.114 30.1579 40.8896 30.1285C40.6652 30.0942 40.375 30.0771 40.0189 30.0771C39.9067 30.0771 39.719 30.0845 39.4556 30.0991C39.4165 31.2007 39.358 32.1897 39.28 33.0661L40.0189 33.0073L40.7725 32.9486ZM40.4067 37.0685C40.8164 37.0685 41.1091 37.0514 41.2847 37.0171C41.4067 36.9437 41.514 36.8115 41.6066 36.6206C41.7042 36.4296 41.7774 36.2215 41.8261 35.9963C41.8749 35.7662 41.8993 35.5606 41.8993 35.3794C41.8115 35.1248 41.375 34.9976 40.5896 34.9976C40.2579 34.9976 39.8775 35.0196 39.4482 35.0636C39.3312 35.0783 39.2434 35.0857 39.1848 35.0857L39.1629 36.1579C39.158 36.2656 39.1531 36.3905 39.1483 36.5324C39.1434 36.6744 39.1409 36.8335 39.1409 37.0098C39.4629 37.049 39.8141 37.0685 40.1945 37.0685H40.4067ZM45.4772 36.4884C45.7747 36.5863 46.0454 36.6646 46.2893 36.7234C46.7624 34.814 47.3014 32.5594 47.9063 29.9596L46.143 29.7687C46.0308 29.4602 45.9747 29.1102 45.9747 28.7185C45.9747 28.4198 46.0088 28.1285 46.0771 27.8446C46.7844 27.7075 47.599 27.6095 48.5209 27.5508C49.4477 27.4871 50.2427 27.4553 50.9061 27.4553C51.3841 27.4553 51.7426 27.4578 51.9817 27.4627L52.4426 27.727C53.2621 29.9841 54.0937 33.0367 54.9376 36.8849C54.9473 36.9241 54.9644 37.0024 54.9888 37.12C55.0181 37.2375 55.04 37.3501 55.0547 37.4578C55.0693 37.5606 55.0766 37.6585 55.0766 37.7515C55.0766 38.1628 54.9303 38.4957 54.6376 38.7503C54.2279 38.9119 53.7328 38.9927 53.1523 38.9927C52.8792 38.9927 52.6036 38.9633 52.3255 38.9045C52.0475 38.8458 51.8597 38.7552 51.7622 38.6328L51.85 36.7381L51.667 35.754C51.35 35.7736 50.9768 35.7834 50.5476 35.7834C50.0891 35.7834 49.6598 35.7687 49.2599 35.7393L49.1721 36.1359C48.9818 36.9878 48.8257 37.5924 48.7038 37.9498C48.5867 38.3072 48.4111 38.5716 48.177 38.743C47.9477 38.9143 47.6039 39 47.1454 39C46.8478 39 46.5478 38.9608 46.2454 38.8825C45.943 38.8091 45.6698 38.7087 45.4259 38.5814C45.1821 38.4541 44.9991 38.317 44.8772 38.1701C44.8772 37.8176 44.9308 37.4823 45.0382 37.164C45.1455 36.8458 45.2918 36.6206 45.4772 36.4884ZM50.6061 30.0257H50.2696L49.7428 33.6463H51.3817L50.6061 30.0257ZM55.7278 33.235C55.7278 32.1236 55.8912 31.1346 56.218 30.2681C56.5497 29.3966 57.0667 28.7087 57.7691 28.2044C58.4715 27.7001 59.3593 27.448 60.4324 27.448C61.1641 27.448 61.9372 27.5435 62.7518 27.7344C63.0152 27.8911 63.2444 28.0551 63.4395 28.2264C63.6395 28.3929 63.8298 28.5961 64.0102 28.836C64.0102 29.1836 63.9639 29.6463 63.8712 30.224C63.7785 30.7968 63.6615 31.3329 63.52 31.8323C63.3834 32.3268 63.2517 32.6475 63.1249 32.7944C62.9981 32.858 62.8908 32.9021 62.803 32.9266C62.7152 32.9461 62.5786 32.9559 62.3933 32.9559C62.164 32.9559 61.9494 32.9388 61.7494 32.9045C61.5494 32.8703 61.3982 32.8237 61.2958 32.765L61.0397 30.2901C60.6934 30.1922 60.2129 30.1432 59.5983 30.1432C59.4325 30.1432 59.3105 30.1457 59.2325 30.1506C59.0227 30.8262 58.9057 31.7344 58.8813 32.8752C58.8764 33.0122 58.8739 33.2203 58.8739 33.4994C58.8739 34.1554 58.9081 34.6867 58.9764 35.093C59.0398 35.4749 59.1081 35.7613 59.1812 35.9523C59.2544 36.1432 59.3812 36.2901 59.5617 36.3929C59.7471 36.4957 60.0227 36.5471 60.3885 36.5471C60.8811 36.5471 61.3348 36.4761 61.7494 36.3341C62.1689 36.1873 62.625 35.9743 63.1176 35.6952C63.303 35.896 63.4444 36.06 63.542 36.1873C63.6444 36.3146 63.7371 36.4712 63.82 36.6573C63.9078 36.8433 63.9663 37.0563 63.9956 37.2962C63.9176 37.4578 63.7103 37.6732 63.3737 37.9425C63.0371 38.2118 62.5957 38.4541 62.0494 38.6695C61.5031 38.8849 60.8909 38.9927 60.2129 38.9927C58.6276 38.9927 57.4838 38.4957 56.7814 37.5018C56.079 36.508 55.7278 35.0857 55.7278 33.235ZM64.6907 36.4884C64.9882 36.5863 65.2589 36.6646 65.5028 36.7234C65.976 34.814 66.515 32.5594 67.1198 29.9596L65.3565 29.7687C65.2443 29.4602 65.1882 29.1102 65.1882 28.7185C65.1882 28.4198 65.2224 28.1285 65.2907 27.8446C65.9979 27.7075 66.8125 27.6095 67.7344 27.5508C68.6612 27.4871 69.4563 27.4553 70.1196 27.4553C70.5977 27.4553 70.9562 27.4578 71.1952 27.4627L71.6561 27.727C72.4756 29.9841 73.3073 33.0367 74.1511 36.8849C74.1609 36.9241 74.1779 37.0024 74.2023 37.12C74.2316 37.2375 74.2536 37.3501 74.2682 37.4578C74.2828 37.5606 74.2901 37.6585 74.2901 37.7515C74.2901 38.1628 74.1438 38.4957 73.8511 38.7503C73.4414 38.9119 72.9463 38.9927 72.3659 38.9927C72.0927 38.9927 71.8171 38.9633 71.5391 38.9045C71.261 38.8458 71.0732 38.7552 70.9757 38.6328L71.0635 36.7381L70.8806 35.754C70.5635 35.7736 70.1904 35.7834 69.7611 35.7834C69.3026 35.7834 68.8734 35.7687 68.4734 35.7393L68.3856 36.1359C68.1954 36.9878 68.0393 37.5924 67.9173 37.9498C67.8003 38.3072 67.6247 38.5716 67.3905 38.743C67.1613 38.9143 66.8174 39 66.3589 39C66.0613 39 65.7614 38.9608 65.4589 38.8825C65.1565 38.8091 64.8834 38.7087 64.6395 38.5814C64.3956 38.4541 64.2127 38.317 64.0907 38.1701C64.0907 37.8176 64.1444 37.4823 64.2517 37.164C64.359 36.8458 64.5053 36.6206 64.6907 36.4884ZM69.8197 30.0257H69.4831L68.9563 33.6463H70.5952L69.8197 30.0257ZM75.7461 33.0147C75.7461 31.8837 75.7657 30.88 75.8047 30.0037L74.8169 29.8494C74.7535 29.6683 74.7047 29.4676 74.6706 29.2472C74.6365 29.0269 74.6194 28.814 74.6194 28.6083C74.6194 28.4517 74.6316 28.2803 74.656 28.0942C75.295 27.869 76.1388 27.7075 77.1875 27.6095C78.2362 27.5116 79.2606 27.4627 80.2605 27.4627C81.0068 27.4627 81.6482 27.5214 82.1848 27.6389C82.7214 27.7564 83.1701 28.0233 83.5311 28.4394C83.8969 28.8507 84.0798 29.4676 84.0798 30.2901C84.0798 30.6279 84.0262 31.0024 83.9188 31.4137C83.8115 31.8201 83.6628 32.2264 83.4725 32.6328C83.2969 33.0049 83.0969 33.3599 82.8726 33.6977C82.6531 34.0306 82.4238 34.317 82.1848 34.5569C82.3263 34.929 82.4726 35.2693 82.6238 35.5777C82.775 35.8813 83.0067 36.2509 83.3189 36.6867L84.3432 36.2534C84.7237 36.5814 84.9456 37.0171 85.009 37.5606C85.009 37.59 84.892 37.7295 84.6578 37.9792C84.4286 38.2289 84.1286 38.4614 83.7579 38.6769C83.3872 38.8874 82.9701 38.9927 82.5067 38.9927C82.1458 38.9927 81.8214 38.929 81.5336 38.8017C81.2507 38.6744 81.0166 38.4517 80.8312 38.1334C80.6507 37.8201 80.5068 37.448 80.3995 37.0171C80.2922 36.5863 80.2166 36.1603 80.1727 35.7393L78.5045 35.6659C78.5484 36.0477 78.6045 36.4419 78.6728 36.8482C78.7411 37.2497 78.7826 37.492 78.7972 37.5753C78.8801 38.06 78.9338 38.3905 78.9582 38.5667C78.7338 38.7038 78.4606 38.8091 78.1387 38.8825C77.8216 38.9559 77.4973 38.9927 77.1656 38.9927C76.7851 38.9927 76.4168 38.9412 76.0608 38.8384C75.9535 38.4076 75.873 37.6536 75.8193 36.5765C75.7705 35.4945 75.7461 34.3072 75.7461 33.0147ZM80.2971 33.896C80.4678 33.4064 80.602 32.8752 80.6995 32.3023C80.802 31.7246 80.8946 31.0367 80.9776 30.2387C80.8361 30.1848 80.6507 30.1432 80.4215 30.1138C80.1922 30.0845 79.9703 30.0698 79.7557 30.0698C79.2679 30.0698 78.9021 30.082 78.6582 30.1065C78.6045 31.9474 78.546 33.2521 78.4826 34.0208L80.2971 33.896ZM86.2821 38.4859C86.2821 38.2754 86.2724 37.6512 86.2529 36.6132C86.2138 35.0955 86.1943 33.7834 86.1943 32.6769C86.1943 31.5949 86.2138 30.6793 86.2529 29.9302L85.0602 29.776C84.9871 29.4774 84.9383 29.2301 84.9139 29.0343C84.8895 28.8335 84.8798 28.6034 84.8846 28.3439C84.9822 28.2215 85.1627 28.0918 85.4261 27.9547C85.6944 27.8127 85.9968 27.6952 86.3333 27.6022C86.6748 27.5092 87.004 27.4627 87.3211 27.4627C87.8869 27.4627 88.3479 27.59 88.7039 27.8446C89.0649 28.0991 89.2551 28.4663 89.2746 28.9461C89.2844 29.2301 89.2893 29.4725 89.2893 29.6732C89.2893 30.5985 89.2502 31.7148 89.1722 33.022C89.0942 34.3244 88.9893 35.8641 88.8576 37.6414L88.7844 38.6769C88.3991 38.8923 87.9601 39 87.4674 39C87.0479 39 86.6528 38.9241 86.2821 38.7723V38.4859ZM90.577 36.4884C90.8745 36.5863 91.1453 36.6646 91.3892 36.7234C91.8623 34.814 92.4013 32.5594 93.0061 29.9596L91.2428 29.7687C91.1306 29.4602 91.0745 29.1102 91.0745 28.7185C91.0745 28.4198 91.1087 28.1285 91.177 27.8446C91.8842 27.7075 92.6988 27.6095 93.6207 27.5508C94.5475 27.4871 95.3426 27.4553 96.006 27.4553C96.484 27.4553 96.8425 27.4578 97.0815 27.4627L97.5425 27.727C98.3619 29.9841 99.1936 33.0367 100.037 36.8849C100.047 36.9241 100.064 37.0024 100.089 37.12C100.118 37.2375 100.14 37.3501 100.154 37.4578C100.169 37.5606 100.176 37.6585 100.176 37.7515C100.176 38.1628 100.03 38.4957 99.7375 38.7503C99.3277 38.9119 98.8326 38.9927 98.2522 38.9927C97.979 38.9927 97.7034 38.9633 97.4254 38.9045C97.1474 38.8458 96.9596 38.7552 96.862 38.6328L96.9498 36.7381L96.7669 35.754C96.4498 35.7736 96.0767 35.7834 95.6474 35.7834C95.1889 35.7834 94.7597 35.7687 94.3597 35.7393L94.2719 36.1359C94.0817 36.9878 93.9256 37.5924 93.8036 37.9498C93.6866 38.3072 93.511 38.5716 93.2768 38.743C93.0476 38.9143 92.7037 39 92.2452 39C91.9477 39 91.6477 38.9608 91.3453 38.8825C91.0428 38.8091 90.7697 38.7087 90.5258 38.5814C90.2819 38.4541 90.099 38.317 89.977 38.1701C89.977 37.8176 90.0307 37.4823 90.138 37.164C90.2453 36.8458 90.3916 36.6206 90.577 36.4884ZM95.706 30.0257H95.3694L94.8426 33.6463H96.4815L95.706 30.0257ZM72.0257 19.4315L71.6473 20.8489L86.2973 24.789L86.6757 23.3716L72.0257 19.4315Z" stroke="black" stroke-width="0.45"/>
<defs>
<linearGradient id="paint0_linear_165_505" x1="91.1494" y1="19.1735" x2="70.2322" y2="13.5896" gradientUnits="userSpaceOnUse">
<stop offset="0.45" stop-color="#BB772F"/>
<stop offset="0.55" stop-color="#D8A538"/>
</linearGradient>
<linearGradient id="paint1_linear_165_505" x1="91.1494" y1="19.1735" x2="70.2322" y2="13.5896" gradientUnits="userSpaceOnUse">
<stop offset="0.45" stop-color="#BB772F"/>
<stop offset="0.55" stop-color="#D8A538"/>
</linearGradient>
</defs>
</svg>
