<svg width="17" height="16" viewBox="0 0 17 16" fill="none" xmlns="http://www.w3.org/2000/svg">
<path d="M3.03571 0.75C3.03571 0.335786 3.3755 0 3.79464 0H16.2411C16.6602 0 17 0.335786 17 0.75C17 1.16421 16.6602 1.5 16.2411 1.5H3.79464C3.3755 1.5 3.03571 1.16421 3.03571 0.75Z" fill="#C1C8C0"/>
<path d="M0 0.75C0 0.335786 0.339784 0 0.758929 0C1.17807 0 1.51786 0.335786 1.51786 0.75C1.51786 1.16421 1.17807 1.5 0.758929 1.5C0.339784 1.5 0 1.16421 0 0.75Z" fill="#C1C8C0"/>
<path d="M13.9643 8C13.9643 8.41421 13.6245 8.75 13.2054 8.75H0.758928C0.339784 8.75 0 8.41421 0 8C0 7.58579 0.339784 7.25 0.758929 7.25H13.2054C13.6245 7.25 13.9643 7.58579 13.9643 8Z" fill="#C1C8C0"/>
<path d="M17 8C17 8.41421 16.6602 8.75 16.2411 8.75C15.8219 8.75 15.4821 8.41421 15.4821 8C15.4821 7.58579 15.8219 7.25 16.2411 7.25C16.6602 7.25 17 7.58579 17 8Z" fill="#C1C8C0"/>
<path d="M3.03571 15.25C3.03571 14.8358 3.3755 14.5 3.79464 14.5H16.2411C16.6602 14.5 17 14.8358 17 15.25C17 15.6642 16.6602 16 16.2411 16H3.79464C3.3755 16 3.03571 15.6642 3.03571 15.25Z" fill="#C1C8C0"/>
<path d="M0 15.25C0 14.8358 0.339784 14.5 0.758929 14.5C1.17807 14.5 1.51786 14.8358 1.51786 15.25C1.51786 15.6642 1.17807 16 0.758929 16C0.339784 16 0 15.6642 0 15.25Z" fill="#C1C8C0"/>
</svg>
