<svg width="11" height="10" viewBox="0 0 11 10" fill="none" xmlns="http://www.w3.org/2000/svg">
<path d="M5.23711 1.92308C5.23711 1.92308 8.94846 1.92315 9.47423 1.92315C10 1.92315 10 1.92315 10 2.53854C10 3.15392 9.79011 6.84622 8.41495 6.84615C8.41495 6.84615 4.17784 6.84608 3.6482 6.84615C3.11856 6.84623 3.11856 1.00008 2.05928 1L1 1M4.44118 9C4.58737 9 4.70588 8.86224 4.70588 8.69231C4.70588 8.52237 4.58737 8.38462 4.44118 8.38462C4.29498 8.38462 4.17647 8.52237 4.17647 8.69231C4.17647 8.86224 4.29498 9 4.44118 9ZM8.14706 9C8.29325 9 8.41176 8.86224 8.41176 8.69231C8.41176 8.52237 8.29325 8.38462 8.14706 8.38462C8.00087 8.38462 7.88235 8.52237 7.88235 8.69231C7.88235 8.86224 8.00087 9 8.14706 9Z" stroke="#C1C8C0" stroke-width="1.5" stroke-linecap="round"/>
</svg>
