<svg width="21" height="20" viewBox="0 0 21 20" fill="none" xmlns="http://www.w3.org/2000/svg">
<g clip-path="url(#clip0_165_636)">
<path d="M0.640594 19.5744L1.98703 14.6576C1.15649 13.2185 0.719635 11.5861 0.720245 9.91376C0.722382 4.682 4.97989 0.425568 10.2115 0.425568C12.7503 0.426636 15.1333 1.41479 16.9253 3.20831C18.7171 5.00182 19.7036 7.38585 19.7027 9.92139C19.7004 15.153 15.4422 19.41 10.2115 19.41C10.2112 19.41 10.2117 19.41 10.2115 19.41H10.2074C8.61897 19.4094 7.0583 19.011 5.67203 18.255L0.640594 19.5744ZM5.90504 16.5373L6.19328 16.708C7.40421 17.4267 8.79261 17.8068 10.2085 17.8076H10.2115C14.5594 17.8076 18.0982 14.2694 18.1 9.92078C18.1008 7.8134 17.2811 5.83174 15.7917 4.34112C14.3021 2.85049 12.3217 2.02911 10.2144 2.02819C5.86307 2.02819 2.3244 5.56594 2.32273 9.91437C2.32212 11.4045 2.73899 12.8557 3.52878 14.1114L3.71647 14.4099L2.91935 17.3201L5.90504 16.5373Z" fill="white"/>
<path d="M0.640594 19.5744L1.98703 14.6576C1.15649 13.2185 0.719635 11.5861 0.720245 9.91376C0.722382 4.682 4.97989 0.425568 10.2115 0.425568C12.7503 0.426636 15.1333 1.41479 16.9253 3.20831C18.7171 5.00182 19.7036 7.38585 19.7027 9.92139C19.7004 15.153 15.4422 19.41 10.2115 19.41C10.2112 19.41 10.2117 19.41 10.2115 19.41H10.2074C8.61897 19.4094 7.0583 19.011 5.67203 18.255L0.640594 19.5744ZM5.90504 16.5373L6.19328 16.708C7.40421 17.4267 8.79261 17.8068 10.2085 17.8076H10.2115C14.5594 17.8076 18.0982 14.2694 18.1 9.92078C18.1008 7.8134 17.2811 5.83174 15.7917 4.34112C14.3021 2.85049 12.3217 2.02911 10.2144 2.02819C5.86307 2.02819 2.3244 5.56594 2.32273 9.91437C2.32212 11.4045 2.73899 12.8557 3.52878 14.1114L3.71647 14.4099L2.91935 17.3201L5.90504 16.5373Z" fill="white"/>
<path fill-rule="evenodd" clip-rule="evenodd" d="M7.83938 5.94712C7.66177 5.55222 7.4747 5.54428 7.30563 5.53742C7.16738 5.53147 7.00915 5.53177 6.85122 5.53177C6.69314 5.53177 6.43619 5.59128 6.2189 5.82856C6.00146 6.06583 5.38867 6.63957 5.38867 7.80641C5.38867 8.97341 6.23858 10.1009 6.35714 10.2593C6.47571 10.4175 7.99777 12.8885 10.4082 13.8392C12.4115 14.6293 12.8191 14.4721 13.2539 14.4326C13.6888 14.3931 14.657 13.8588 14.8546 13.3051C15.0523 12.7514 15.0523 12.2768 14.993 12.1775C14.9336 12.0787 14.7756 12.0194 14.5384 11.9008C14.3013 11.7823 13.1354 11.2084 12.918 11.1293C12.7005 11.0501 12.5424 11.0108 12.3844 11.2482C12.2261 11.4853 11.772 12.0194 11.6336 12.1775C11.4952 12.336 11.3568 12.3558 11.1197 12.2371C10.8826 12.1183 10.1187 11.868 9.21267 11.0601C8.50771 10.4315 8.03164 9.65517 7.89324 9.41775C7.755 9.18062 7.89095 9.06344 7.99746 8.93389C8.18926 8.70058 8.51107 8.28111 8.59011 8.12303C8.66915 7.96464 8.62963 7.82625 8.57043 7.70753C8.51107 7.58897 8.0501 6.41618 7.83938 5.94712V5.94712Z" fill="white"/>
</g>
<defs>
<clipPath id="clip0_165_636">
<rect width="20" height="20" fill="white" transform="translate(0.175964)"/>
</clipPath>
</defs>
</svg>
